<svg xmlns="http://www.w3.org/2000/svg" viewBox="0 0 47.5 47.5" id="sun"><defs><clipPath id="a"><path d="M0 38h38V0H0v38Z"></path></clipPath></defs><g clip-path="url(#a)" transform="matrix(1.25 0 0 -1.25 0 47.5)"><path fill="#ffac33" d="M15 35s0 2 2 2 2-2 2-2v-2s0-2-2-2-2 2-2 2v2zM31 23s2 0 2-2-2-2-2-2h-2s-2 0-2 2 2 2 2 2h2zM5 23s2 0 2-2-2-2-2-2H3s-2 0-2 2 2 2 2 2h2zM8.872 30.956s1.414-1.414 0-2.828-2.828 0-2.828 0l-1.415 1.414s-1.414 1.414 0 2.829c1.415 1.414 2.829 0 2.829 0l1.414-1.415ZM27.957 28.129s-1.414-1.414-2.828 0 0 2.828 0 2.828l1.414 1.414s1.414 1.414 2.828 0 0-2.828 0-2.828l-1.414-1.414ZM26 21a9 9 0 0 1-9 9 9 9 0 1 1 9-9"></path><path fill="#b4c3cc" d="M29 17c-.825 0-1.62-.125-2.369-.357A6.498 6.498 0 0 1 20.5 21c-3.044 0-5.592-2.096-6.299-4.921A4.459 4.459 0 0 1 11.5 17 4.5 4.5 0 0 1 7 12.5c0-.604.123-1.178.339-1.704A4.98 4.98 0 0 1 6 11a5 5 0 0 1-5-5 5 5 0 0 1 5-5h23a8 8 0 1 1 0 16"></path></g></svg>